<?xml version="1.0" encoding="UTF-8"?>
<svg data-bbox="7.061 13.1 98.803 93.559" viewBox="0 0 115 119" height="158.667" width="153.333" xmlns="http://www.w3.org/2000/svg" data-type="shape">
    <g>
        <path d="M51.5 15.5c-3.3 2-5.3 2.5-11.2 2.5-6.8 0-7.3.2-9.5 3-5.9 7.8-8.4 10.3-12.2 12.2-5.3 2.7-5.6 3.2-5.6 9.9 0 4.6-.5 6.3-3 9.7-3.3 4.6-3.9 9.2-1.4 11.3 2.9 2.4 4.4 6.8 4.4 13.2 0 6.8 1.1 8.7 5.8 10.2 3 .9 8.2 5.4 8.2 7 0 .8 1 2.6 2.2 4 2.1 2.3 3.1 2.6 10.1 2.9 6.1.3 8.5.8 10.7 2.4 4.8 3.6 7.6 3.8 12.3.6 3.4-2.2 5.7-2.9 12.1-3.4 8.4-.6 9-1 12.8-7.9 1-1.7 3.1-3.9 4.9-4.9 6.8-3.7 7.6-4.8 8.3-11.2.4-3.3 1.8-8.4 3.1-11.3 3.1-6.4 3.1-8 .3-12.6-1.4-2.2-2.5-6.1-2.9-10-.7-6.9-1.1-7.5-8.8-12.4-1.9-1.2-4.2-3.8-5.2-5.7-3-5.7-5.3-7-12.3-7-4.7 0-7-.6-10.1-2.5-2.2-1.3-5.1-2.4-6.5-2.4-1.4 0-4.3 1.1-6.5 2.4zm14.7 4.6C89.3 25 104.1 47.4 98.6 69c-9.6 37.2-62.9 42.3-80.8 7.7-3-5.8-3.2-6.9-3.3-16.7 0-9.3.3-11.1 2.7-16.2 8.3-17.9 29.1-27.9 49-23.7z"/>
        <path d="M53.5 24c-.3.5-.1 1 .4 1 .6 0 1.1 1 1.2 2.2.1 2.2.1 2.2.8-.2.5-1.4.6-2.8.4-3.3-.6-1-2.1-.9-2.8.3z"/>
        <path d="M49 26.8c0 2.1.5 2.8 2 2.8 2.4 0 2.3.2.8-3.1-1.5-3.3-2.8-3.2-2.8.3z"/>
        <path d="M58.6 25.8c-.4 1.3-.5 2.6-.2 2.9 1 1.1 1.8-.4 1.4-2.9l-.4-2.3-.8 2.3z"/>
        <path d="M61.4 25.5c-.8 2.1.2 4.5 2 4.5 1.5 0 2.5-2.7 1.9-4.8-.6-1.7-3.2-1.5-3.9.3zm2.6 1.7c0 1.6-.3 1.9-1.1 1.1-.6-.6-.8-1.6-.5-2.2 1.1-1.7 1.6-1.3 1.6 1.1z"/>
        <path d="M45 26c0 .5-.7.7-1.5.4-1.2-.5-1.3-.1-.4 2.5.6 1.7 1.3 3.1 1.6 3.1.3 0 .2-.7-.1-1.6-.5-1.4-.4-1.5.9-.4 2.1 1.8 2.8.8 1.6-2.4C46 25 45 24.1 45 26z"/>
        <path d="M67.2 27.5c-1.6 3.4-1.5 4 .3 2.5 1.2-1 1.5-.9 1.5.6 0 2.3 1.6.7 2.5-2.6.4-1.7.3-2.1-.3-1.1-.8 1.1-1.1 1-1.9-.3-.8-1.5-1.1-1.4-2.1.9z"/>
        <path d="M72.5 30c-1 1.1-1.5 2.3-1.2 2.7.4.3.7.3.7-.2 0-.4.8-.1 1.7.6 1.5 1.3 1.6 1.2 1.1-.9-.4-1.2-.2-2 .3-1.6.5.3.9-.2.9-1 0-2.2-1.3-2-3.5.4z"/>
        <path d="M35.3 29.8c-.8.5-.7 1.4.7 3.2 1.5 2 2.1 2.3 3.1 1.2 1.1-1 1.1-1.2 0-1.2-.7 0-.9-.5-.6-1 .3-.6-.2-1-1.2-1-1.5 0-1.6-.2-.3-1 .8-.5 1.1-1 .5-1-.5 0-1.5.4-2.2.8z"/>
        <path d="M77.7 31.8c-2 2.2-2.2 3.8-.6 4.8.7.4 1 .1.7-.7-.3-.8.1-2.2 1-3.2 2.1-2.3 1-3.2-1.1-.9z"/>
        <path d="M30.4 33.5c-.7 1.8 1.2 4.5 3.2 4.5 2.3 0 2.7-2.1.5-4.1-2.4-2.3-3-2.4-3.7-.4zm3.1 1.6c1.1 1.7-.1 2.1-1.5.4-.8-.9-.8-1.5-.2-1.5.6 0 1.4.5 1.7 1.1z"/>
        <path d="M82.5 38c-1.8 2-1.8 2.1 0 1.4 1.5-.6 1.7-.4 1.2.9-.5 1.5-.3 1.6 1.3.7 2.6-1.4 3.9-3.6 1.6-2.7-1.4.5-1.7.3-1.2-.8.8-2.1-.8-1.9-2.9.5z"/>
        <path d="M27.3 38.2c.2.7.9 1.2 1.5 1.1.6-.2.9.4.6 1.2-.8 1.9.3 1.9 2.2 0 1.4-1.3 1.2-1.6-1.1-2.5-3.4-1.3-3.8-1.3-3.2.2z"/>
        <path d="M56 39c0 .4-.8.6-1.8.3-1.4-.3-2.1.4-3 3.5-1.4 4.6-1.5 7.2-.4 7.2.4 0 .6 1.6.4 3.5-.2 1.9-.7 3.3-1.1 3-.4-.2-2.2.9-3.9 2.5-2.9 2.7-3 2.9-1.2 3.5 1.3.4 2.7-.1 4.2-1.4 2.7-2.6 3.8-2.6 3.8-.1 0 1.4-.7 2-2.1 2-1.1 0-1.8.3-1.6.8.5.6 3.9.6 13.7-.1 1.9-.1 4-.8 4.6-1.6.6-.8 1.6-1.1 2.1-.8.6.4 1.4 0 1.7-.9.4-1 .2-1.4-.6-1-4.2 1.7-8.9 2.8-9.4 2.3-.4-.4-.1-1.4.7-2.4 1.2-1.4 1.2-1.6 0-.8-1.1.6-1.3.4-.7-1.1 1.4-3.5 1.1-3.9-3.4-4.5-2.8-.4-3.4-.7-1.7-.7 1.5-.1 2.7-.6 2.7-1.2 0-.5-.7-.7-1.5-.4-1.1.5-1.3.2-.9-1 .3-.9 1-1.3 1.5-1 .5.3 1.4-.5 1.9-1.8.9-2 1-1.8.7 1.4-.2 2.1.2 3.9.8 4.2 1.6.6 1.6-6-.1-9.9-1.2-2.9-5.4-5.6-5.4-3.5zm-3.7 8c.3 1.1.1 1.8-.4 1.4-.5-.3-.9-1.2-.9-2 0-2 .7-1.7 1.3.6zM56 61c0 1.1-.2 2-.4 2s-.6-.9-.9-2c-.3-1.1-.1-2 .4-2s.9.9.9 2z"/>
        <path d="M86 42c-1.4 1.1-2 2-1.5 1.9 1.3 0 5-2.8 4.4-3.3-.2-.3-1.5.4-2.9 1.4z"/>
        <path d="M24.4 43.4c2.2 1.8 4.2 2.1 5.1.7.3-.6-.3-.9-1.2-.9-1 0-2.7-.3-3.8-.6-2-.8-2-.7-.1.8z"/>
        <path d="M86.7 44.7C85.3 46 86.1 48 88 48c1.1 0 2-.5 2-1.1 0-.6-.7-.8-1.6-.5-.8.3-1.2.2-.9-.4.9-1.4 3.2-1.2 3.8.2.3.8.6.6.6-.5.1-1.1-.6-1.7-2.2-1.7-1.3 0-2.7.3-3 .7z"/>
        <path d="M21 46.9c0 .8 3.2 2 5.3 2.1.4 0 .7-.8.6-1.8 0-.9-.3-1.2-.5-.5-.4.8-1.3.9-3 .3-1.3-.5-2.4-.6-2.4-.1z"/>
        <path d="M20.5 50c.3.5 1.8 1 3.2 1 3.2 0 2.8-.5-1-1.4-1.9-.4-2.6-.3-2.2.4z"/>
        <path d="M88 50c-1.3.8-1.2 1 .3 1 1 0 1.5.4 1.2 1-.3.5.3 1 1.4 1 1.1 0 2.3-.5 2.6-1 .3-.6.1-1-.5-1s-.8-.5-.5-1c.8-1.3-2.5-1.3-4.5 0z"/>
        <path d="M20.5 53c1.7.7 1.7.9.3.9-1 .1-1.8.5-1.8 1.1 0 1.2 1.7 1.2 4.5.1 1.9-.8 1.9-.8-.2-1.9-1.2-.7-2.8-1.2-3.5-1.1-.7 0-.4.4.7.9z"/>
        <path d="M69.6 54.9c-1 1.1-2.4 1.7-3.1 1.5-.7-.3-1.5-.1-1.8.3-1.3 2 3.3.9 5.4-1.3 1.2-1.3 2-2.4 1.7-2.4-.3 0-1.3.9-2.2 1.9z"/>
        <path d="M73.9 57.8c-.5 3 2.4 9.1 4.4 9.2 1 0 .9-4.8-.3-6.9-1-2-3.9-3.6-4.1-2.3z"/>
        <path d="M89.4 58.1c-1 1.7 1.3 3.4 2.9 2.1.8-.7 1.7-.9 2-.5.4.3.7.2.7-.4 0-2-1.4-2.3-3.3-.6-1.9 1.7-2 1.7-1.4 0 .7-1.9.2-2.3-.9-.6z"/>
        <path d="M39 60.5c.7.8 1.7 1.2 2.2.9.6-.4.5-1-.3-1.5-2.2-1.4-3.3-1-1.9.6z"/>
        <path d="M23 60.9c0 .5-1 1.2-2.2 1.4-1.7.3-1.4.5 1 .6 2.2.1 3.2-.3 3.2-1.4 0-.8-.4-1.5-1-1.5-.5 0-1 .4-1 .9z"/>
        <path d="M88.4 63.1c-.3.6-.1 1.6.5 2.2.8.8 1.1.6 1.1-.6 0-.9.7-1.7 1.5-1.7s1.5.8 1.5 1.7c0 1.4.3 1.4 1.2.5 1-1 1-1.5-.2-2.2-2-1.3-4.7-1.2-5.6.1z"/>
        <path d="m20.9 66-2.4 1.9 4 .1c2.7 0 3.5-.3 2.6-.9-.7-.5-1-1.4-.7-2 1.1-1.8-1-1.3-3.5.9z"/>
        <path d="M43.2 65.3c1 .8 1.5 1.7 1.1 2.1-.4.4 0 .4 1 0 1-.3 1.7-.1 1.7.5s-.4 1.1-1 1.1c-1.9 0-2.5.2-3.7 1.2-.7.6-1.3 1.6-1.3 2.2 0 .6.6.4 1.3-.4 1.3-1.7 3.4-1.8 8.3-.6 3 .8 3.2 1.2 3.9 6.3.8 6.7 2.5 5.9 4-2 1-5.1 1.1-5.2 4.8-5.5 6.6-.6 3.9-1.7-3.2-1.4-5.6.3-7.9-.1-11.8-1.9-6.4-3.1-7.1-3.3-5.1-1.6z"/>
        <path d="M69 68c-1.3.8-1.2 1 .3 1 .9 0 1.7-.5 1.7-1 0-1.2-.1-1.2-2 0z"/>
        <path d="M88.8 67.7c.6.2 1.2.9 1.2 1.4 0 .4-.7.5-1.7.2-1-.4-1.4-.2-1 .4.4.6 1.8 1.3 3.2 1.5 2 .4 2.3.3 1.4-.8-.9-1.1-.7-1.4.7-1.4 1.6 0 1.7-.2.4-1-.8-.5-2.4-.9-3.5-.9s-1.4.3-.7.6z"/>
        <path d="M22.8 69.7c-1 .2-1.8.9-1.8 1.4 0 .6.4.7 1 .4.6-.3.7.1.4.9-.4 1-.1 1.6.7 1.6 1.8 0 4.9-2 3.2-2-.7 0-1-.7-.7-1.5.6-1.5.3-1.6-2.8-.8z"/>
        <path d="M85.4 73.2c-.8 1.2 2.1 3.8 4.3 3.8 1.8 0 1.6-3.7-.3-4.4-2.3-.9-3.2-.7-4 .6zm4.4 1.7c.3.8-.1 1.2-.9.9-.7-.2-1.5-1-1.7-1.7-.3-.8.1-1.2.9-.9.7.2 1.5 1 1.7 1.7z"/>
        <path d="M24.6 75.5c-1.5 1.2-1.7 1.8-.8 2.7 1.5 1.5 6.6-.6 5.9-2.5-.6-1.8-2.9-1.9-5.1-.2zm2.6 1.7c-.6.6-1.5.8-1.9.4-.4-.4-.1-1.1.7-1.6 1.9-1.2 2.7-.3 1.2 1.2z"/>
        <path d="M82.9 77.1c-1.2.8-1 1.3 1 2.9 2.4 2.1 4.1 1.9 4.1-.5 0-2-3.3-3.6-5.1-2.4zm3.6 1.9c.3.5-.1 1-.9 1-.9 0-1.6-.5-1.6-1 0-.6.4-1 .9-1 .6 0 1.3.4 1.6 1z"/>
        <path d="M28.8 79.4c-1 .7-1.8 1.7-1.8 2.1 0 .4.7.2 1.5-.5 1.9-1.6 3.4-.5 1.7 1.2-1.6 1.6-1.5 2.8.3 2.8.9 0 1.5-.9 1.5-2.3 0-1.8.2-1.9 1-.7.8 1.3 1 1.2 1-.3 0-.9-.7-1.7-1.6-1.7-.8 0-1.2-.5-.9-1 .9-1.4-.7-1.2-2.7.4z"/>
        <path d="M79.7 80.7c-1.2 1.1-.7 2.3.7 1.7.8-.3 1.7-.1 2.1.5.3.6 1.1 1.1 1.7 1.1.6 0 .3-.9-.7-2-1.9-2.1-2.8-2.4-3.8-1.3z"/>
        <path d="M35 86c0 .5.5 1 1 1 .6 0 1-.5 1-1 0-.6-.4-1-1-1-.5 0-1 .4-1 1z"/>
        <path d="M40.5 88.1c-1.1 1.6-.1 1.9 1.3.3.7-.8.8-1.4.3-1.4s-1.3.5-1.6 1.1z"/>
        <path d="M71 87.4c0 .2.7.9 1.5 1.6 1.3 1.1 1.4 1 .9-.4-.5-1.4-2.4-2.3-2.4-1.2z"/>
        <path d="M43.2 89.3c-.9 1.1-1 1.7-.2 2.2 1.5.9 2.3.1 1.8-2.1-.3-1.5-.4-1.6-1.6-.1z"/>
        <path d="M68 88.7c0 .5.5 1.5 1 2.3.7 1.2.9 1 .7-.8-.1-1.9-1.7-3.3-1.7-1.5z"/>
        <path d="M57 92c0 1.2.7 2 1.6 2 1.3 0 1.4-.3.5-1.3-.6-.8-.8-1.7-.4-2 .3-.4.1-.7-.5-.7-.7 0-1.2.9-1.2 2z"/>
        <path d="M62.2 91.7c.3 1.9 2.8 3.1 2.8 1.3 0-.6-.5-.8-1.2-.4-.8.5-.9.2-.5-.9.3-1 .2-1.7-.4-1.7-.6 0-.9.8-.7 1.7z"/>
        <path d="M46 92.2c0 .4.7.8 1.5.8s1.5-.4 1.5-.8c0-.5-.7-.9-1.5-.9s-1.5.4-1.5.9z"/>
        <path d="M50.1 92.2c-.1 1 .6 1.8 1.4 1.8.8 0 1.5-.8 1.5-1.8 0-1.3-.2-1.4-.9-.3-.7 1.1-.9 1.1-1.4 0-.4-1-.6-.9-.6.3z"/>
    </g>
</svg>
